<?xml version="1.0" encoding="UTF-8"?>
<svg id="Capa_1" data-name="Capa 1"
    xmlns="http://www.w3.org/2000/svg" viewBox="0 0 1200 1200">
    <defs>
        <style>
      .cls-1, .cls-2 {
        stroke-width: 0px;
      }

      .cls-2 {
        fill: #f4e73f;
      }
        </style>
    </defs>
    <rect class="cls-1" width="1200" height="1200" rx="215" ry="215"/>
    <g>
        <path class="cls-2" d="m463.218,610.206c-25.031,5.847-50.063,11.89-75.094,18.148-25.031,6.258-48.4,17.326-70.088,33.166-8.35,5.847-16.701,8.761-25.031,8.761-7.509,0-15.86-2.914-25.031-8.761-14.197-11.675-17.952-27.104-11.264-46.308,1.662-4.165,3.324-7.705,5.006-10.638,1.662-2.914,3.324-6.453,5.006-10.638,9.172-17.522,15.84-35.67,20.025-54.443,4.165-18.773,6.258-37.742,6.258-56.946.821-95.119-16.27-186.894-51.314-275.344-3.344-6.668-5.436-11.675-6.258-15.019-4.185-15.84.411-28.356,13.767-37.547,6.668-5.006,13.767-7.509,21.277-7.509,9.172,0,17.092,3.129,23.78,9.387,6.668,6.258,12.516,12.731,17.522,19.399,5.828,6.688,10.423,13.767,13.767,21.277l28.786,41.302c2.503,4.185,4.791,7.724,6.884,10.638,2.073,2.933,4.38,6.473,6.884,10.638,18.343,27.534,36.921,54.658,55.695,81.352,18.773,26.713,38.994,52.566,60.701,77.597,9.172,10.853,20.436,22.528,33.792,35.044-5.847-10.834-11.264-21.472-16.27-31.915-5.006-10.423-10.013-21.472-15.019-33.166l-41.302-83.855c-6.688-16.681-13.357-30.859-20.025-42.553-9.191-19.184-10.013-36.706-2.503-52.566,5.006-9.172,11.89-16.681,20.651-22.528,8.761-5.828,18.148-8.331,28.16-7.509,22.528,2.503,37.547,14.197,45.056,35.044,2.503,5.006,3.755,10.013,3.755,15.019,1.662,19.204,5.006,37.547,10.013,55.069,5.006,17.522,10.013,35.474,15.019,53.817,1.662,5.847,3.324,11.479,5.006,16.896,1.662,5.436,3.324,11.069,5.006,16.896l22.528,67.584c4.165,13.357,7.92,26.283,11.264,38.798,3.324,12.516,6.668,25.872,10.013,40.05.821,3.344,1.252,8.35,1.252,15.019-.841,13.357-7.94,17.522-21.277,12.516-37.547-18.343-71.554-41.927-102.002-70.713-30.468-28.786-59.039-59.019-85.732-90.738l-8.761-8.761c5.828,34.222,9.172,67.584,10.013,100.125.821,32.541-4.185,65.512-15.019,98.874h10.013c15.84-.821,31.289-1.252,46.308-1.252s30.038,1.252,45.056,3.755c5.006,1.682,10.013,3.129,15.019,4.38,5.006,1.252,10.013,2.718,15.019,4.38,7.509,4.185,11.675,9.191,12.516,15.019.821,5.847-2.092,11.264-8.761,16.27-14.197,10.013-29.627,20.455-46.308,31.289-37.547,24.21-75.72,50.493-114.518,78.848-38.798,28.375-72.806,60.505-102.002,96.37,30.038-2.503,59.234-3.129,87.609-1.877,28.356,1.252,56.32,5.632,83.855,13.141,26.694,6.688,52.976,15.645,78.848,26.909,25.853,11.264,51.314,23.995,76.345,38.173-.841-1.662-1.252-3.755-1.252-6.258s-.841-4.576-2.503-6.258c-8.35-24.19-15.86-48.596-22.528-73.216-6.688-24.601-12.516-49.437-17.522-74.468-.841-2.503-1.252-7.079-1.252-13.767,0-3.324,1.252-5.417,3.755-6.258,2.503-1.662,5.006-1.252,7.509,1.252,1.662,1.682,2.914,3.129,3.755,4.38.821,1.252,2.073,2.718,3.755,4.38l7.509,15.019,16.27,28.786c9.172,18.363,18.558,36.1,28.16,53.191,9.582,17.111,19.81,34.007,30.663,50.688,8.331,11.694,16.055,23.154,23.154,34.418,7.079,11.264,14.393,22.743,21.902,34.418,4.165,6.688,7.509,13.572,10.013,20.651,2.503,7.099,4.165,14.823,5.006,23.154,3.324,18.363-2.503,35.885-17.522,52.566-8.35,8.331-17.952,11.264-28.786,8.761-21.707-1.682-42.768-7.099-63.204-16.27-20.455-9.172-40.265-19.184-59.449-30.038-30.878-17.522-62.793-32.326-95.745-44.431-32.971-12.085-66.959-22.724-102.002-31.915-24.21-6.668-47.99-13.337-71.339-20.025-23.369-6.668-47.129-13.337-71.339-20.025-6.668-1.662-12.085-5.632-16.27-11.89-4.165-6.258-5.417-13.141-3.755-20.651,0-10.834,4.185-20.436,12.516-28.786,38.388-45.056,81.762-85.106,130.163-120.15,48.381-35.044,98.874-65.492,151.439-91.364.821,0,2.914-.821,6.258-2.503l-1.252-3.755Z"/>
        <path class="cls-2" d="m753.868,887.811c-1.352-2.012-2.861-3.852-4.528-5.534-1.682-1.667-3.522-3.852-5.534-6.54v45.28c-.676,3.349-1.006,6.54-1.006,9.559s-.676,6.195-2.012,9.559c-1.352,7.374-4.701,11.399-10.062,12.075-6.713.66-11.414-2.012-14.087-8.05-3.365-4.701-6.037-9.229-8.05-13.584-2.012-4.371-4.025-8.883-6.037-13.584-6.713-16.76-13.081-33.363-19.118-49.808-6.037-16.43-12.075-32.702-18.112-48.802-8.726-22.137-17.279-43.928-25.659-65.404-8.396-21.461-18.285-42.591-29.684-63.392-5.377-10.062-12.421-20.455-21.131-31.193-5.377-6.698-8.71-13.741-10.062-21.131-1.336-7.374.346-14.747,5.031-22.137,8.71-14.747,22.137-21.131,40.249-19.118,8.05.676,14.92,2.861,20.628,6.54,5.691,3.695,11.226,8.553,16.603,14.59,7.374,10.062,13.741,21.304,19.118,33.708,5.361,12.421,10.062,24.652,14.087,36.727,5.361,18.788,15.251,40.092,29.684,63.895,14.417,23.819,31.02,46.459,49.808,67.92,18.772,21.477,38.567,40.249,59.367,56.348,20.785,16.1,40.579,26.508,59.367,31.193,9.386,2.012,18.112,2.688,26.162,2.012,18.112-1.336,28.174-11.399,30.187-30.187.66-7.374,0-14.747-2.012-22.137-2.012-7.374-4.701-14.747-8.05-22.137-12.751-28.174-31.036-54.996-54.839-80.498-23.819-25.486-46.789-48.299-68.926-68.423-20.8-19.448-41.428-38.394-61.883-56.852-20.47-18.442-40.752-37.387-60.876-56.852-25.501-23.473-49.305-50.971-71.442-82.51-22.137-31.523-36.9-64.728-44.274-99.616-4.025-17.436-4.355-35.218-1.006-53.33,4.025-20.785,13.411-36.884,28.174-48.299,14.747-11.399,32.859-16.43,54.336-15.093,18.112.676,34.542,4.874,49.305,12.578,14.747,7.72,28.835,17.279,42.261,28.677l16.1,13.081c1.336,1.352,2.673,2.516,4.025,3.522,1.336,1.006,2.673,2.185,4.025,3.522l-3.019-8.05c-3.365-5.361-6.54-10.565-9.559-15.596-3.019-5.031-6.21-10.219-9.559-15.596-13.427-22.137-12.751-41.255,2.012-57.355,10.062-10.062,22.467-15.093,37.23-15.093,10.723,0,20.628,3.019,29.684,9.056s14.92,14.433,17.609,25.156c8.71,36.224,19.118,71.788,31.193,106.66,12.075,34.888,22.797,70.436,32.199,106.66,3.349,10.062,6.195,20.297,8.553,30.69,2.343,10.408,4.858,20.973,7.547,31.696,1.336,6.713,2.012,12.075,2.012,16.1-1.352,6.037-3.365,10.062-6.037,12.075-4.025,2.688-8.05,1.352-12.075-4.025-3.365-3.349-6.713-6.698-10.062-10.062-3.365-3.349-6.713-6.698-10.062-10.062-17.452-20.124-34.888-40.406-52.324-60.876-17.452-20.455-34.888-40.752-52.324-60.876-12.751-15.423-28.85-31.523-48.299-48.299-19.464-16.76-38.912-27.828-58.361-33.205-9.402-2.673-15.769-2.516-19.118.503-3.365,3.019-5.031,9.229-5.031,18.615.66,10.738,3.349,21.807,8.05,33.205,4.685,11.414,10.565,22.64,17.609,33.708,7.044,11.068,14.59,21.477,22.64,31.193,8.05,9.732,15.754,18.285,23.143,25.659,15.423,14.763,31.02,29.353,46.789,43.771,15.754,14.433,31.696,28.677,47.796,42.764,21.461,18.112,42.764,36.397,63.895,54.839,21.131,18.458,41.412,37.733,60.876,57.858,12.075,12.751,23.976,26.335,35.721,40.752,11.729,14.433,22.294,29.684,31.696,45.783,9.386,16.1,17.106,32.875,23.143,50.311,6.037,17.452,9.056,35.218,9.056,53.33-1.352,28.174-10.408,52.166-27.168,71.945-16.776,19.779-38.912,32.026-66.411,36.727-15.439,3.349-30.69,3.852-45.783,1.509-15.093-2.358-30.029-6.54-44.777-12.578-19.464-8.726-37.23-19.464-53.33-32.199-16.1-12.735-31.193-27.168-45.28-43.268Z"/>
    </g>
</svg>