<?xml version="1.0" encoding="UTF-8"?>
<svg id="Capa_1" data-name="Capa 1" xmlns="http://www.w3.org/2000/svg" viewBox="0 0 1200 1200">
  <defs>
    <style>
      .cls-1 {
        fill: red;
      }

      .cls-1,
      .cls-2 {
        stroke-width: 0px;
      }

      .cls-2 {
        fill: #fff;
      }
    </style>
  </defs>
  <rect class="cls-1" width="1200" height="1200" rx="200" ry="200" />
  <g>
    <path class="cls-2"
      d="m120.677,875.329V324.67h428.847v110.966h-285.342v111.801h226.939v104.292h-226.939v112.635h296.189v110.965H120.677Z" />
    <path class="cls-2"
      d="m841.539,316.326c51.166,0,96.365,7.926,135.579,23.779s73.278,39.084,102.204,69.667l-69.249,92.611c-23.922-25.03-49.645-43.802-77.177-56.317-27.532-12.515-58.818-18.773-93.863-18.773-20.585,0-37.27,2.229-50.058,6.675-12.802,4.458-21.981,10.572-27.532,18.355-5.569,7.796-8.344,16.687-8.344,26.698,0,11.681,5.423,21.563,16.27,29.619,10.847,8.069,28.496,14.888,52.979,20.441l92.612,20.858c55.065,12.802,95.388,31.431,120.979,55.901,25.577,24.482,38.379,57.02,38.379,97.616,0,38.94-10.014,71.896-30.038,98.869-20.023,26.985-47.556,47.283-82.597,60.906-35.042,13.624-75.091,20.442-120.144,20.442-36.712,0-71.754-4.041-105.126-12.098-33.375-8.057-63.409-19.607-90.11-34.626-26.697-15.017-49.225-32.252-67.581-51.728l69.251-95.949c13.896,16.139,31.001,30.454,51.312,42.969,20.297,12.515,42.551,22.396,66.747,29.619,24.195,7.234,48.807,10.847,73.837,10.847,19.465,0,35.734-1.942,48.81-5.841,13.061-3.884,22.656-9.725,28.784-17.521,6.116-7.783,9.179-16.96,9.179-27.532,0-11.682-4.172-21.551-12.517-29.619-8.342-8.057-24.195-14.876-47.556-20.442l-101.788-22.527c-31.158-7.223-58.821-16.817-83.016-28.785-24.195-11.954-43.255-28.08-57.154-48.391-13.908-20.298-20.857-45.745-20.857-76.342,0-34.481,9.452-65.208,28.367-92.194,18.903-26.972,46.162-48.248,81.765-63.826,35.589-15.566,78.14-23.362,127.654-23.362Z" />
  </g>
</svg>